<?xml version="1.0" standalone="no"?>
<!DOCTYPE svg PUBLIC "-//W3C//DTD SVG 20010904//EN"
 "http://www.w3.org/TR/2001/REC-SVG-20010904/DTD/svg10.dtd">
<svg version="1.0" xmlns="http://www.w3.org/2000/svg"
 width="886.000000pt" height="472.000000pt" viewBox="0 0 886.000000 472.000000"
 preserveAspectRatio="xMidYMid meet">

<g transform="translate(0.000000,472.000000) scale(0.100000,-0.100000)"
fill="#000000" stroke="none">
<path d="M2100 3995 l0 -305 -204 0 -203 0 -6 -52 c-3 -29 -11 -114 -18 -188
l-12 -135 -121 -65 c-491 -264 -814 -602 -901 -944 -32 -126 -39 -215 -25
-315 23 -171 92 -334 204 -486 117 -159 332 -347 542 -476 58 -36 84 -58 84
-71 0 -23 -38 -451 -44 -496 l-5 -32 3030 0 3030 0 -174 190 -175 191 152 78
c605 310 938 678 996 1102 28 203 -37 434 -183 648 -110 162 -345 371 -579
517 -78 49 -371 203 -409 216 -9 3 -8 43 3 161 l14 157 -168 0 -168 0 0 305 0
305 -2330 0 -2330 0 0 -305z m420 170 c0 -20 5 -25 25 -25 25 0 25 -1 25 -85
0 -84 0 -85 -25 -85 -18 0 -25 -5 -25 -20 0 -19 -7 -20 -100 -20 l-100 0 0
-65 0 -65 50 0 c43 0 50 -3 50 -20 0 -19 -7 -20 -100 -20 -93 0 -100 1 -100
20 0 15 7 20 25 20 l25 0 0 170 0 170 -25 0 c-20 0 -25 5 -25 25 l0 25 150 0
150 0 0 -25z m500 -20 c0 -41 -2 -45 -25 -45 -18 0 -25 5 -25 20 0 19 -7 20
-100 20 l-100 0 0 -60 0 -60 50 0 c43 0 50 3 50 20 0 15 7 20 25 20 24 0 25
-2 25 -65 0 -63 -1 -65 -25 -65 -18 0 -25 5 -25 20 0 17 -7 20 -50 20 l-50 0
0 -85 0 -85 100 0 100 0 0 25 c0 20 5 25 25 25 23 0 25 -4 25 -45 l0 -45 -175
0 c-168 0 -175 1 -175 20 0 15 7 20 25 20 l25 0 0 170 0 170 -25 0 c-20 0 -25
5 -25 25 l0 25 175 0 175 0 0 -45z m410 20 c0 -20 5 -25 25 -25 25 0 25 -1 25
-85 0 -84 0 -85 -25 -85 -18 0 -25 -5 -25 -20 0 -15 -7 -20 -25 -20 -18 0 -25
-5 -25 -20 0 -15 7 -20 25 -20 18 0 25 -5 25 -20 0 -15 7 -20 24 -20 18 0 25
-6 28 -22 2 -15 11 -24 26 -26 14 -2 22 -10 22 -23 0 -16 -7 -19 -50 -19 l-50
0 0 40 c0 36 -2 40 -25 40 -20 0 -25 5 -25 25 0 20 -5 25 -25 25 -18 0 -25 5
-25 20 0 17 -7 20 -50 20 l-50 0 0 -65 c0 -63 1 -65 25 -65 18 0 25 -5 25 -20
0 -18 -7 -20 -75 -20 -68 0 -75 2 -75 20 0 15 7 20 25 20 l25 0 0 170 0 170
-25 0 c-20 0 -25 5 -25 25 l0 25 150 0 150 0 0 -25z m400 0 c0 -20 5 -25 25
-25 18 0 25 -5 25 -20 0 -15 7 -20 25 -20 l25 0 0 -130 0 -130 -25 0 c-18 0
-25 -5 -25 -20 0 -15 -7 -20 -25 -20 -18 0 -25 -5 -25 -20 0 -19 -7 -20 -125
-20 -118 0 -125 1 -125 20 0 15 7 20 25 20 l25 0 0 170 0 170 -25 0 c-20 0
-25 5 -25 25 l0 25 125 0 125 0 0 -25z m300 0 c0 -20 -5 -25 -25 -25 l-25 0 0
-145 0 -145 25 0 c20 0 25 -5 25 -25 0 -24 2 -25 75 -25 73 0 75 1 75 25 0 20
5 25 25 25 l25 0 0 145 0 145 -25 0 c-20 0 -25 5 -25 25 0 24 2 25 75 25 73 0
75 -1 75 -25 0 -20 -5 -25 -25 -25 l-25 0 0 -170 0 -170 -50 0 c-43 0 -50 -3
-50 -20 0 -18 -7 -20 -75 -20 -68 0 -75 2 -75 20 0 17 -7 20 -50 20 l-50 0 0
170 0 170 -25 0 c-20 0 -25 5 -25 25 0 24 2 25 75 25 73 0 75 -1 75 -25z
m1050 0 c0 -20 5 -25 25 -25 18 0 25 -5 25 -20 0 -15 7 -20 25 -20 l25 0 0
-130 0 -130 -25 0 c-18 0 -25 -5 -25 -20 0 -15 -7 -20 -25 -20 -18 0 -25 -5
-25 -20 0 -19 -7 -20 -125 -20 -118 0 -125 1 -125 20 0 15 7 20 25 20 l25 0 0
170 0 170 -25 0 c-20 0 -25 5 -25 25 l0 25 125 0 125 0 0 -25z m400 -20 c0
-41 2 -45 25 -45 23 0 25 -4 25 -40 0 -36 3 -40 25 -40 24 0 25 -2 25 -65 0
-62 1 -65 24 -65 22 0 25 -5 28 -42 l3 -43 48 -2 47 -2 0 169 0 170 -25 0
c-20 0 -25 5 -25 25 0 23 3 25 50 25 l50 0 0 -45 c0 -41 2 -45 25 -45 18 0 25
-5 25 -20 0 -15 7 -20 25 -20 23 0 25 -4 25 -45 0 -41 2 -45 25 -45 18 0 25
-5 25 -20 0 -15 7 -20 25 -20 23 0 25 -4 25 -40 0 -36 3 -40 25 -40 l25 0 0
145 0 145 -50 0 c-47 0 -50 2 -50 25 l0 25 100 0 100 0 0 -25 c0 -20 -5 -25
-25 -25 l-25 0 0 -190 0 -190 -25 0 c-18 0 -25 5 -25 20 0 15 -7 20 -25 20
-18 0 -25 5 -25 20 0 15 -7 20 -25 20 -23 0 -25 4 -25 45 0 41 -2 45 -25 45
-18 0 -25 5 -25 20 0 15 -7 20 -25 20 -23 0 -25 4 -25 45 0 41 -2 45 -25 45
l-25 0 0 -130 0 -130 50 0 c43 0 50 -3 50 -20 0 -19 -7 -20 -175 -20 -168 0
-175 1 -175 20 0 15 7 20 25 20 23 0 25 4 25 45 l0 45 -125 0 -125 0 0 -45 c0
-41 2 -45 25 -45 18 0 25 -5 25 -20 0 -18 -7 -20 -75 -20 -68 0 -75 2 -75 20
0 15 7 20 25 20 23 0 25 4 25 45 0 41 2 45 25 45 24 0 25 2 25 65 0 63 1 65
25 65 23 0 25 4 25 40 0 36 3 40 25 40 18 0 25 5 25 20 0 17 -7 20 -50 20 -47
0 -50 2 -50 25 0 24 2 25 75 25 l75 0 0 -45z m960 20 c0 -20 5 -25 25 -25 20
0 25 5 25 25 0 20 5 25 25 25 24 0 25 -2 25 -65 0 -63 -1 -65 -25 -65 -18 0
-25 5 -25 20 0 15 -7 20 -25 20 -18 0 -25 5 -25 20 0 19 -7 20 -100 20 l-100
0 0 -60 0 -60 75 0 c73 0 75 -1 75 -25 0 -23 3 -25 50 -25 43 0 50 -3 50 -20
0 -15 7 -20 25 -20 24 0 25 -2 25 -65 0 -63 -1 -65 -25 -65 -18 0 -25 -5 -25
-20 0 -19 -7 -20 -100 -20 -93 0 -100 1 -100 20 0 15 -7 20 -25 20 -18 0 -25
-5 -25 -20 0 -15 -7 -20 -25 -20 -24 0 -25 2 -25 65 0 63 1 65 25 65 18 0 25
-5 25 -20 0 -15 7 -20 25 -20 20 0 25 -5 25 -25 l0 -25 100 0 100 0 0 65 0 65
-50 0 c-43 0 -50 3 -50 20 0 18 -7 20 -75 20 -68 0 -75 2 -75 20 0 15 -7 20
-25 20 -24 0 -25 2 -25 65 0 63 1 65 25 65 20 0 25 5 25 25 l0 25 100 0 100 0
0 -25z m-3712 -552 l143 -6 -30 -31 c-28 -30 -30 -36 -45 -205 l-16 -174 -261
-591 c-345 -782 -392 -887 -395 -883 -2 2 30 82 71 177 74 174 74 175 52 186
-12 7 -47 15 -77 18 -30 3 -74 10 -97 15 l-42 8 -102 -226 c-56 -124 -123
-275 -149 -336 -26 -60 -64 -146 -85 -190 -72 -158 -118 -271 -120 -300 -2
-16 -3 -41 -4 -54 -1 -13 -16 -38 -35 -55 -41 -40 -43 -45 -56 -186 -6 -63
-13 -134 -16 -157 l-5 -43 2771 0 2771 0 -128 140 -127 140 -87 0 c-66 0 -90
-4 -99 -16 -28 -33 -57 -37 -289 -43 -266 -6 -297 -6 -541 7 -153 7 -181 11
-215 30 l-40 22 -1655 -3 c-1383 -2 -1666 -5 -1722 -17 -60 -12 -73 -12 -121
3 -33 11 -87 17 -140 17 -76 0 -87 2 -87 18 0 12 2 14 8 4 11 -16 39 -7 73 25
l26 24 2459 3 2459 4 29 -34 29 -35 -22 -15 c-12 -9 -19 -20 -15 -25 4 -6 14
-3 25 7 19 17 21 16 64 -26 l45 -44 -21 -22 c-25 -26 -7 -45 20 -20 16 15 20
13 55 -23 37 -38 41 -61 10 -61 -18 0 -18 -14 1 -30 13 -10 19 -10 33 3 17 16
21 14 55 -21 39 -40 46 -55 22 -46 -8 4 -15 13 -15 21 0 12 -3 13 -13 4 -8 -6
-16 -9 -19 -6 -3 3 -1269 5 -2813 5 -2599 0 -2810 -1 -2827 -17 -10 -9 -21
-14 -24 -11 -6 6 24 372 33 403 3 11 52 121 108 245 56 124 193 434 305 690
205 470 423 966 521 1183 48 107 57 121 96 144 24 14 43 28 43 31 0 4 -111 6
-247 5 l-248 -2 -8 -68 c-5 -37 -10 -73 -12 -79 -3 -11 -297 -174 -314 -174
-4 0 -21 -20 -37 -46 -16 -25 -30 -41 -32 -36 -3 10 52 646 63 729 l6 42 97 4
c197 6 821 7 960 0z m1334 0 l158 -6 -34 -31 -34 -31 -16 -179 c-9 -99 -18
-181 -19 -181 -1 -1 -75 -42 -164 -90 -142 -77 -167 -94 -194 -134 l-31 -46 6
45 c3 25 8 83 12 128 6 78 9 84 33 95 31 14 41 26 41 50 0 16 -18 17 -239 17
l-239 0 -6 -47 c-17 -144 -77 -845 -72 -850 3 -4 14 1 23 9 28 24 671 378 688
378 3 0 -10 -24 -29 -52 -34 -52 -35 -58 -51 -222 -8 -94 -17 -171 -19 -173
-1 -2 -149 -82 -327 -179 -178 -97 -325 -177 -327 -179 -7 -6 -51 -519 -46
-524 3 -3 18 9 32 27 l27 32 181 0 181 0 7 73 c13 133 15 141 49 161 96 56
399 217 403 214 2 -2 -10 -24 -26 -48 -16 -24 -32 -56 -35 -70 -4 -20 -65
-661 -65 -684 0 -3 -246 -6 -546 -6 l-546 0 5 33 c3 17 9 79 12 137 4 58 9
113 11 123 4 13 -1 17 -20 17 -14 0 -28 5 -31 10 -4 6 7 10 24 10 38 0 40 16
5 32 l-26 12 6 91 c4 49 18 205 31 345 13 140 31 345 40 455 15 195 23 280 85
920 16 170 30 311 30 312 0 10 847 15 1052 6z m1371 0 l128 -6 -32 -33 -32
-33 -49 -528 c-26 -290 -50 -533 -52 -540 -3 -6 -66 -44 -142 -84 -151 -80
-148 -75 -63 -119 l36 -19 12 26 c6 14 14 23 17 20 3 -3 0 -15 -6 -27 -14 -26
-19 -20 58 -70 l62 -40 -6 -67 c-3 -38 -25 -273 -48 -523 l-41 -455 -159 -2
c-128 -1 -161 -5 -175 -17 -10 -9 -21 -16 -25 -16 -11 0 -1 142 49 676 8 89
15 166 15 173 0 6 14 18 30 26 17 9 28 20 25 25 -6 9 -211 135 -237 145 -10 4
-132 -55 -225 -109 -2 -2 -83 -862 -83 -886 0 -19 -8 -20 -152 -20 -147 0
-152 -1 -185 -26 l-33 -25 0 28 c0 15 7 87 15 158 8 72 26 275 40 450 14 176
41 475 60 665 19 190 50 525 70 745 19 220 38 423 41 452 l6 52 92 4 c183 6
865 7 989 0z m1286 0 l182 -6 -31 -32 -32 -33 -98 -1068 c-54 -588 -104 -1136
-112 -1219 l-13 -150 -160 -3 c-157 -2 -160 -3 -187 -29 l-27 -26 4 49 c25
254 47 464 51 486 5 24 8 26 24 16 10 -7 16 -16 14 -20 -3 -4 -1 -8 4 -8 6 0
12 20 14 45 3 43 2 45 -24 45 -16 0 -28 5 -28 10 0 6 13 10 29 10 27 0 29 3
33 45 3 43 2 45 -24 45 -16 0 -28 5 -28 10 0 6 13 10 29 10 27 0 29 3 33 45 3
43 2 45 -24 45 -16 0 -28 5 -28 10 0 6 14 10 30 10 25 0 30 4 30 25 0 20 -5
25 -25 25 -34 0 -32 20 3 21 l27 2 -28 4 c-24 4 -28 8 -23 26 3 12 6 43 6 70
0 45 1 47 29 47 24 0 29 5 35 31 3 17 6 44 6 59 0 28 -3 26 -247 -107 -137
-75 -250 -137 -253 -140 -2 -2 -21 -191 -42 -420 -20 -228 -39 -420 -40 -425
-2 -5 -68 -9 -153 -9 -148 0 -150 0 -177 -26 -15 -15 -30 -24 -32 -22 -6 6 36
504 63 751 21 187 161 1736 161 1775 0 21 5 22 98 26 200 6 755 7 931 0z
m-4630 -1982 c-18 -39 -34 -70 -36 -68 -2 2 11 36 28 76 18 39 34 70 36 68 2
-2 -11 -36 -28 -76z m4238 -7 c-3 -3 -12 -4 -19 -1 -8 3 -5 6 6 6 11 1 17 -2
13 -5z m-4296 -121 c-11 -21 -20 -35 -21 -31 0 12 33 78 38 74 2 -2 -6 -21
-17 -43z m-40 -90 c-11 -21 -20 -35 -21 -31 0 12 33 78 38 74 2 -2 -6 -21 -17
-43z m-48 -111 c-14 -34 -28 -60 -30 -58 -2 2 8 31 23 65 15 34 28 60 30 58 2
-2 -8 -31 -23 -65z m-57 -129 c-8 -15 -15 -25 -16 -21 0 12 23 58 27 54 3 -2
-2 -17 -11 -33z m-35 -80 c-12 -20 -14 -14 -5 12 4 9 9 14 11 11 3 -2 0 -13
-6 -23z m-35 -80 c-8 -15 -15 -25 -16 -21 0 12 23 58 27 54 3 -2 -2 -17 -11
-33z m-35 -80 c-11 -21 -20 -35 -21 -31 0 12 33 78 38 74 2 -2 -6 -21 -17 -43z"/>
<path d="M2320 4055 l0 -85 100 0 100 0 0 85 0 85 -100 0 -100 0 0 -85z"/>
<path d="M3230 4055 l0 -85 100 0 100 0 0 85 0 85 -100 0 -100 0 0 -85z"/>
<path d="M3680 3970 l0 -170 75 0 c73 0 75 1 75 25 0 20 5 25 25 25 l25 0 0
125 0 125 -25 0 c-18 0 -25 5 -25 20 0 18 -7 20 -75 20 l-75 0 0 -170z"/>
<path d="M5030 3970 l0 -170 75 0 c73 0 75 1 75 25 0 20 5 25 25 25 l25 0 0
125 0 125 -25 0 c-18 0 -25 5 -25 20 0 18 -7 20 -75 20 l-75 0 0 -170z"/>
<path d="M5530 4055 c0 -41 -2 -45 -25 -45 -22 0 -25 -4 -25 -40 l0 -40 75 0
75 0 0 40 c0 36 -2 40 -25 40 -23 0 -25 4 -25 45 0 41 -2 45 -25 45 -23 0 -25
-4 -25 -45z"/>
<path d="M3025 1848 c-4 -20 -45 -429 -61 -608 -3 -36 -8 -77 -10 -92 l-6 -28
535 0 534 0 6 48 c3 26 9 85 12 132 3 47 8 106 11 132 4 46 4 46 -33 58 -21 7
-80 30 -132 51 -52 22 -95 38 -97 37 -1 -2 -6 -41 -11 -88 l-8 -85 -60 -10
c-33 -6 -74 -18 -92 -28 -43 -23 -90 -22 -137 4 -27 14 -65 22 -127 26 -49 3
-89 9 -89 12 0 4 7 87 16 185 8 98 14 179 12 180 -18 12 -241 96 -254 96 -2 0
-6 -10 -9 -22z"/>
<path d="M4784 3235 c-4 -12 -74 -775 -74 -806 0 -20 3 -18 38 13 21 19 119
79 218 133 98 54 181 100 183 101 2 2 14 115 27 251 12 136 23 249 23 250 1 1
13 3 29 5 22 2 28 9 30 33 l3 30 -237 0 c-149 0 -238 -4 -240 -10z"/>
<path d="M4335 1450 c-6 -10 -35 -256 -35 -297 l0 -33 138 0 138 0 12 152 c7
83 10 153 8 155 -14 14 -254 35 -261 23z"/>
<path d="M5195 1450 c-4 -6 -6 -41 -4 -78 4 -120 -6 -142 -62 -142 -32 0 -35
-4 -42 -67 l-5 -43 138 0 137 0 7 48 c9 70 20 242 15 242 -2 0 -35 11 -73 25
-75 27 -101 31 -111 15z"/>
<path d="M6124 3235 c-1 -5 -19 -192 -39 -415 -19 -223 -38 -426 -41 -452 -7
-59 7 -62 31 -8 10 22 25 46 34 54 9 7 97 58 196 111 99 54 181 99 182 99 1 1
11 107 23 236 30 341 26 320 61 320 26 0 29 3 29 33 l0 32 -236 0 c-149 0
-238 -4 -240 -10z"/>
<path d="M5703 1272 c-47 -3 -47 -3 -58 -99 l-6 -53 141 0 140 0 0 54 c0 58 7
52 -87 86 -34 12 -74 16 -130 12z"/>
<path d="M6529 1182 c-6 -20 -16 -43 -22 -49 -7 -10 12 -13 91 -13 l100 0 5
38 c2 20 1 41 -3 45 -4 5 -41 10 -83 12 l-76 4 -12 -37z"/>
</g>
</svg>
